<svg width="19" height="19" viewBox="0 0 19 19" fill="none" xmlns="http://www.w3.org/2000/svg">
<path d="M8.36 16.5904C8.36198 16.9073 8.26983 17.2176 8.09523 17.482C7.92062 17.7465 7.67144 17.9531 7.37925 18.0757C7.08707 18.1984 6.76506 18.2315 6.45403 18.1709C6.143 18.1103 5.85698 17.9587 5.63221 17.7353C5.40745 17.512 5.25407 17.2269 5.19151 16.9163C5.12896 16.6056 5.16006 16.2834 5.28086 15.9905C5.40166 15.6975 5.60673 15.447 5.87006 15.2708C6.13339 15.0945 6.44313 15.0004 6.76 15.0004C7.18262 15.0004 7.58808 15.1676 7.88785 15.4655C8.18762 15.7634 8.35736 16.1678 8.36 16.5904ZM14.95 15.0004C14.6335 15.0004 14.3242 15.0943 14.0611 15.2701C13.798 15.4459 13.5929 15.6958 13.4718 15.9881C13.3507 16.2805 13.319 16.6022 13.3807 16.9126C13.4425 17.2229 13.5949 17.508 13.8186 17.7318C14.0424 17.9556 14.3275 18.1079 14.6379 18.1697C14.9482 18.2314 15.2699 18.1997 15.5623 18.0786C15.8547 17.9575 16.1045 17.7525 16.2804 17.4893C16.4562 17.2262 16.55 16.9169 16.55 16.6004C16.55 16.1761 16.3814 15.7691 16.0814 15.4691C15.7813 15.169 15.3743 15.0004 14.95 15.0004ZM18.34 5.25042L16.72 11.7404C16.5554 12.3871 16.1799 12.9605 15.6528 13.3698C15.1258 13.7791 14.4773 14.001 13.81 14.0004H7.9C7.23135 14.0005 6.58185 13.7771 6.05463 13.3659C5.52742 12.9546 5.15271 12.379 4.99 11.7304L2.59 2.00042H1C0.734784 2.00042 0.48043 1.89507 0.292893 1.70753C0.105357 1.51999 0 1.26564 0 1.00042C0 0.735208 0.105357 0.480854 0.292893 0.293318C0.48043 0.105781 0.734784 0.000424411 1 0.000424411H3.37C3.59843 -0.00623097 3.82226 0.0655575 4.00421 0.203838C4.18615 0.342119 4.31525 0.538548 4.37 0.760424L5.15 4.00042H17.25H17.34C17.4327 3.98565 17.5273 3.98565 17.62 4.00042C17.7497 4.03289 17.8715 4.09103 17.9783 4.1714C18.0852 4.25177 18.1748 4.35274 18.2419 4.46835C18.309 4.58395 18.3523 4.71184 18.3692 4.84445C18.386 4.97706 18.3761 5.11171 18.34 5.24042V5.25042ZM16.09 6.00042H5.65L6.96 11.2404C7.01228 11.4523 7.13245 11.6413 7.30217 11.7785C7.47189 11.9158 7.68185 11.9937 7.9 12.0004H13.78C14.0084 12.0071 14.2323 11.9353 14.4142 11.797C14.5962 11.6587 14.7252 11.4623 14.78 11.2404L16.09 6.00042Z" fill="white"/>
</svg>
