<svg width="15" height="18" viewBox="0 0 15 18" fill="none" xmlns="http://www.w3.org/2000/svg">
<path d="M7.37714 10C8.36604 10 9.33274 9.70676 10.155 9.15735C10.9772 8.60794 11.6181 7.82705 11.9965 6.91342C12.375 5.99979 12.474 4.99446 12.2811 4.02455C12.0881 3.05465 11.6119 2.16373 10.9127 1.46447C10.2134 0.765206 9.32249 0.289002 8.35259 0.0960759C7.38268 -0.0968503 6.37735 0.00216642 5.46372 0.380605C4.55009 0.759043 3.7692 1.39991 3.21979 2.22215C2.67038 3.0444 2.37714 4.0111 2.37714 5C2.37714 6.32609 2.90392 7.59785 3.8416 8.53554C4.77928 9.47322 6.05105 10 7.37714 10ZM7.37714 2C7.97048 2 8.5505 2.17595 9.04385 2.50559C9.53719 2.83524 9.92171 3.30377 10.1488 3.85195C10.3758 4.40013 10.4352 5.00333 10.3195 5.58527C10.2037 6.16722 9.91801 6.70177 9.49846 7.12132C9.0789 7.54088 8.54435 7.8266 7.96241 7.94236C7.38046 8.05811 6.77726 7.9987 6.22909 7.77164C5.68091 7.54458 5.21237 7.16006 4.88273 6.66671C4.55308 6.17337 4.37714 5.59335 4.37714 5C4.37714 4.20435 4.69321 3.44129 5.25582 2.87868C5.81842 2.31607 6.58149 2 7.37714 2ZM14.3771 15V17C14.3771 17.2652 14.2718 17.5196 14.0842 17.7071C13.8967 17.8946 13.6424 18 13.3771 18C13.1119 18 12.8576 17.8946 12.67 17.7071C12.4825 17.5196 12.3771 17.2652 12.3771 17V15C12.3771 14.7348 12.2718 14.4804 12.0842 14.2929C11.8967 14.1054 11.6424 14 11.3771 14H3.37714C3.11192 14 2.85757 14.1054 2.67003 14.2929C2.48249 14.4804 2.37714 14.7348 2.37714 15V17C2.37714 17.2652 2.27178 17.5196 2.08424 17.7071C1.89671 17.8946 1.64235 18 1.37714 18C1.11192 18 0.857566 17.8946 0.67003 17.7071C0.482493 17.5196 0.377136 17.2652 0.377136 17V15C0.377136 14.2044 0.693207 13.4413 1.25582 12.8787C1.81843 12.3161 2.58149 12 3.37714 12H11.3771C12.1728 12 12.9358 12.3161 13.4985 12.8787C14.0611 13.4413 14.3771 14.2044 14.3771 15Z" fill="white"/>
</svg>
