<svg width="60" height="13" viewBox="0 0 60 13" fill="none" xmlns="http://www.w3.org/2000/svg">
<path d="M0 13V0.5H2.5V10.5H15C15 11.2031 14.7526 11.7956 14.2578 12.2773C13.763 12.7591 13.1771 13 12.5 13H0ZM17.5 13V0.5H20V13H17.5ZM25 13V3L22.5 0.5H26.25L32.5 6.75L38.75 0.5H42.5L40 3V13H37.5V5.5L33.75 9.25V13H31.25V9.25L27.5 5.5V13H25ZM45 13V10.5L48.75 6.75L47.5 5.5L45 3V0.5H47.5V1.75L52.5 6.75L47.5 11.75V13H45ZM57.5 13V11.75L52.5 6.75L57.5 1.75V0.5H60V3L57.5 5.5H57.4805L56.25 6.75L60 10.5V13H57.5Z" fill="white"/>
</svg>
